<?xml version="1.0" encoding="UTF-8"?>
<svg xmlns="http://www.w3.org/2000/svg" viewBox="-1 -1 12 10" height="128" width="128" version="1.1">    
<defs>
<path id="star" d="m2 0 A2 2 0 0 1 0 2 A2 2 0 0 1 2 4 A2 2 0 0 1 4 2 A2 2 0 0 1 2 0 z"></path>
</defs>
<use href="#star" fill="#444" transform="translate(-0.8, -1.6) scale(1.5)"></use>
<use href="#star" fill="#444" transform="translate(5, -0.2) scale(1.5)"></use>
<use href="#star" fill="#444" transform="translate(0.8, 3) scale(1.5)"></use>
<path stroke="#444" stroke-width=".8" fill="none" d="M0 3 L5 8L10 3L7 0L5 2L3 0 z"></path>
<path d="M3 3V0L5 2zH0L5 8z" fill="#b078b1"/><path d="M5 2L7 0v3z" fill="#799dd1"/><path d="M10 3L5 8l2-5z" fill="#6684af"/><path d="M3 3h4L5 8z" fill="#a9a9d3"/><path d="M5 2l2 1H3z" fill="#dbdbfc"/><path d="M10 3H7V0z" fill="#6dbfe2"/><path d="M0 3h3V0z" fill="#855c87"/>
<path stroke="#444" stroke-width=".15" fill="none" d="M3 0v3L5 8 7 3V0M3 3l2-1 2 1h3H0z" />
<use href="#star" stroke="#444" stroke-width=".15" fill="yellow" transform="translate(0.0, -0.8) scale(1.1)"></use>
<use href="#star" stroke="#444" stroke-width=".15" fill="yellow" transform="translate(5.8, .6) scale(1.1)"></use>
<use href="#star" stroke="#444" stroke-width=".15" fill="yellow" transform="translate(1.6, 3.8) scale(1.1)"></use>
</svg>
