<?xml version="1.0" encoding="UTF-8"?>
<svg xmlns="http://www.w3.org/2000/svg" viewBox="-100 -100 1614 1344" height="128" width="128" version="1.1"><defs><linearGradient id="Gradient1"><stop offset="0%" stop-color="#a16daa"></stop><stop offset="100%" stop-color="#6ab3d0"></stop></linearGradient><path id="star" d="m 200,0 A 200,200,0,0,1, 0,200 A 200,200,0,0,1 200,400 A 200,200,0,0,1 400,200 A 200,200,0,0,1 200,0 z"></path></defs><use href="#star" fill="#444" transform="translate(-80, -200) scale(2)"></use><use href="#star" fill="#444" transform="translate(700, 0) scale(2)"></use><use href="#star" fill="#444" transform="translate(150, 400) scale(2)"></use><path stroke="#444" stroke-width="50" fill="url(#Gradient1)" d="m 437,0 L 0,437 L 707,1144 L 1414,437 L 977,0 L 707,270 L 437,0 z"></path><path stroke="#444" stroke-width="16.666666666666668" stroke-linejoin="round" fill="none" d="m 437,0 V 437 L 707,1144 L 977,437 L 0,437 h 1414 H 437 L 707,270 L 977,437 V 0"></path><use href="#star" stroke="#444" stroke-width="16.666666666666668" stroke-linejoin="round" fill="yellow" transform="translate(20, -100) scale(1.5)"></use><use href="#star" stroke="#444" stroke-width="16.666666666666668" stroke-linejoin="round" fill="yellow" transform="translate(800, 100) scale(1.5)"></use><use href="#star" stroke="#444" stroke-width="16.666666666666668" stroke-linejoin="round" fill="yellow" transform="translate(250, 500) scale(1.5)"></use></svg>